<svg xmlns="http://www.w3.org/2000/svg" width="32" height="32" viewBox="0 0 32 32" fill="none">
  <style>
    :root { color: #000 }
    @media (prefers-color-scheme: dark) {
      :root { color: #fff }
    }
  </style>
  <path d="M26.1654 9.86429C26.0129 9.9813 23.3197 11.4816 23.3197 14.8178C23.3197 18.6766 26.7467 20.0417 26.8493 20.0755C26.8335 20.1587 26.3048 21.9451 25.0424 23.7653C23.9167 25.367 22.741 26.9662 20.9525 26.9662C19.1641 26.9662 18.7038 25.9391 16.6392 25.9391C14.6271 25.9391 13.9117 27 12.2758 27C10.6399 27 9.4984 25.5179 8.18597 23.6977C6.66576 21.5603 5.4375 18.2397 5.4375 15.0882C5.4375 10.0333 8.76197 7.35244 12.0338 7.35244C13.7723 7.35244 15.2215 8.48095 16.313 8.48095C17.3519 8.48095 18.9721 7.28483 20.9499 7.28483C21.6995 7.28483 24.3927 7.35243 26.1654 9.86429ZM20.011 5.14481C20.8289 4.18532 21.4076 2.85399 21.4076 1.52265C21.4076 1.33803 21.3918 1.15082 21.3576 1C20.0267 1.0494 18.4434 1.87629 17.4887 2.971C16.7391 3.81348 16.0395 5.14481 16.0395 6.49435C16.0395 6.69717 16.0737 6.89999 16.0895 6.965C16.1736 6.9806 16.3104 6.9988 16.4472 6.9988C17.6412 6.9988 19.143 6.20832 20.011 5.14481Z" fill="currentColor"/>
</svg>
