<svg width="32" height="32" viewBox="0 0 32 32" fill="none" xmlns="http://www.w3.org/2000/svg">
  <path d="M26.308 6.84247C24.4227 5.96933 22.4323 5.3499 20.3879 5C20.1081 5.50591 19.8549 6.02642 19.6295 6.55936C17.4517 6.2274 15.2371 6.2274 13.0593 6.55936C12.8338 6.02648 12.5806 5.50597 12.301 5C10.2552 5.35286 8.26356 5.97376 6.37632 6.84703C2.62968 12.4543 1.61403 17.9224 2.12186 23.3128C4.31598 24.9526 6.77184 26.1998 9.38266 27C9.97054 26.2002 10.4907 25.3517 10.9377 24.4635C10.0887 24.1427 9.26929 23.747 8.48889 23.2808C8.69428 23.1301 8.89515 22.9749 9.08925 22.8242C11.36 23.9044 13.8385 24.4645 16.3478 24.4645C18.8571 24.4645 21.3356 23.9044 23.6064 22.8242C23.8027 22.9863 24.0036 23.1416 24.2067 23.2808C23.4248 23.7477 22.6039 24.1442 21.7533 24.4658C22.1998 25.3535 22.72 26.2013 23.3084 27C25.9215 26.203 28.3792 24.9564 30.5737 23.3151C31.1696 17.0639 29.5558 11.6461 26.308 6.84247ZM11.581 19.9977C10.1658 19.9977 8.99672 18.6986 8.99672 17.1005C8.99672 15.5023 10.1252 14.1918 11.5765 14.1918C13.0277 14.1918 14.1878 15.5023 14.163 17.1005C14.1382 18.6986 13.0232 19.9977 11.581 19.9977ZM21.1146 19.9977C19.6972 19.9977 18.5326 18.6986 18.5326 17.1005C18.5326 15.5023 19.6611 14.1918 21.1146 14.1918C22.5681 14.1918 23.7192 15.5023 23.6944 17.1005C23.6696 18.6986 22.5568 19.9977 21.1146 19.9977Z" fill="#5865F2"/>
</svg>
