<svg xmlns="http://www.w3.org/2000/svg" width="32" height="32" viewBox="0 0 32 32" fill="none">
    <style>
    :root { color: #24292F }
    @media (prefers-color-scheme: dark) {
      :root { color: #fff }
    }
  </style>
  <path fill-rule="evenodd" clip-rule="evenodd" d="M15.9613 3C8.79402 3 3 8.83674 3 16.0576C3 21.8296 6.71243 26.7155 11.8626 28.4447C12.5064 28.5747 12.7423 28.1638 12.7423 27.8181C12.7423 27.5153 12.7211 26.4777 12.7211 25.3966C9.11557 26.175 8.36476 23.8401 8.36476 23.8401C7.78533 22.3268 6.9268 21.9378 6.9268 21.9378C5.74671 21.1379 7.01276 21.1379 7.01276 21.1379C8.32178 21.2244 9.00865 22.4782 9.00865 22.4782C10.1672 24.467 12.0342 23.9051 12.7853 23.5591C12.8925 22.716 13.236 22.1323 13.6008 21.8081C10.7252 21.5054 7.69963 20.3813 7.69963 15.3657C7.69963 13.9388 8.21433 12.7715 9.02988 11.8636C8.9012 11.5394 8.45045 10.1988 9.15882 8.40455C9.15882 8.40455 10.2532 8.05859 12.7208 9.74488C13.7773 9.45905 14.8668 9.31365 15.9613 9.31243C17.0557 9.31243 18.1713 9.46392 19.2015 9.74488C21.6693 8.05859 22.7637 8.40455 22.7637 8.40455C23.4721 10.1988 23.0211 11.5394 22.8924 11.8636C23.7294 12.7715 24.2229 13.9388 24.2229 15.3657C24.2229 20.3813 21.1973 21.4836 18.3002 21.8081C18.7724 22.2188 19.18 22.9969 19.18 24.2293C19.18 25.9803 19.1587 27.3856 19.1587 27.8178C19.1587 28.1638 19.3949 28.5747 20.0385 28.445C25.1886 26.7152 28.901 21.8296 28.901 16.0576C28.9223 8.83674 23.107 3 15.9613 3Z" fill="currentColor"/>
</svg>
