<svg xmlns="http://www.w3.org/2000/svg" width="32" height="32" viewBox="0 0 32 32" fill="none">
  <path d="M28.48 16.2955C28.48 15.3736 28.3973 14.4873 28.2436 13.6364H16V18.6709H22.9964C22.6891 20.29 21.7673 21.6609 20.3845 22.5827V25.8564H24.6036C27.0618 23.5873 28.48 20.2545 28.48 16.2955Z" fill="#4285F4"/>
  <path d="M16 29C19.51 29 22.4527 27.8418 24.6036 25.8564L20.3845 22.5827C19.2263 23.3627 17.7491 23.8355 16 23.8355C12.62 23.8355 9.74817 21.5545 8.71999 18.4818H4.39453V21.8382C6.53362 26.0809 10.9182 29 16 29Z" fill="#34A853"/>
  <path d="M8.72 18.47C8.46 17.69 8.30636 16.8627 8.30636 16C8.30636 15.1373 8.46 14.31 8.72 13.53V10.1736H4.39455C3.50818 11.9227 3 13.8964 3 16C3 18.1036 3.50818 20.0773 4.39455 21.8264L7.76273 19.2027L8.72 18.47Z" fill="#FBBC05"/>
  <path d="M16 8.17636C17.9145 8.17636 19.6163 8.83818 20.9754 10.1145L24.6982 6.39182C22.4409 4.28818 19.51 3 16 3C10.9182 3 6.53362 5.91909 4.39453 10.1736L8.71999 13.53C9.74817 10.4573 12.62 8.17636 16 8.17636Z" fill="#EA4335"/>
</svg>
