<svg xmlns="http://www.w3.org/2000/svg" width="32" height="32" viewBox="0 0 32 32" fill="none">
  <path d="M11.9465 5.00027H19L11.6778 26.2507C11.6025 26.469 11.4592 26.6588 11.2681 26.7932C11.077 26.9276 10.8476 26.9999 10.6124 27H5.12298C4.94471 27 4.76899 26.9585 4.61037 26.8788C4.45175 26.7991 4.31478 26.6835 4.2108 26.5417C4.10681 26.3998 4.0388 26.2358 4.01239 26.0631C3.98598 25.8904 4.00193 25.714 4.05891 25.5486L10.8808 5.74959C10.956 5.53114 11.0993 5.3413 11.2905 5.20683C11.4817 5.07235 11.7111 5.00028 11.9465 5.00027Z" fill="url(#paint0_linear_42_53)"/>
  <path d="M22.3339 20H11.5019C11.4012 19.9999 11.3028 20.0275 11.2195 20.0793C11.1362 20.131 11.0719 20.2045 11.035 20.2901C10.998 20.3757 10.9901 20.4695 11.0124 20.5593C11.0346 20.6491 11.0859 20.7307 11.1595 20.7934L18.1199 26.7312C18.3226 26.904 18.5894 27.0001 18.8665 27H25L22.3339 20Z" fill="#0078D4"/>
  <path d="M11.9749 5.00001C11.7361 4.99911 11.5032 5.07276 11.3103 5.2102C11.1174 5.34764 10.9746 5.54167 10.9028 5.76394L4.06613 25.5305C4.00508 25.6966 3.98591 25.8745 4.01025 26.0494C4.03459 26.2242 4.10171 26.3907 4.20595 26.5348C4.31019 26.679 4.44847 26.7965 4.60909 26.8775C4.76972 26.9585 4.94797 27.0005 5.12875 27H10.781C10.9915 26.9633 11.1882 26.8727 11.3511 26.7375C11.514 26.6023 11.6372 26.4274 11.7082 26.2305L13.0715 22.3095L17.9415 26.7421C18.1455 26.9068 18.4015 26.9979 18.6664 27H25L22.2222 19.2535L14.1244 19.2554L19.0805 5.00001H11.9749Z" fill="url(#paint1_linear_42_53)"/>
  <path d="M21.0345 5.74826C20.9585 5.53016 20.8136 5.34064 20.6204 5.2064C20.4272 5.07216 20.1953 4.99997 19.9574 5H12C12.2379 5.00001 12.4697 5.07222 12.663 5.20645C12.8562 5.34069 13.001 5.53018 13.0771 5.74826L19.9829 25.5481C20.0406 25.7135 20.0568 25.8899 20.0301 26.0627C20.0034 26.2354 19.9345 26.3995 19.8293 26.5414C19.724 26.6833 19.5854 26.7989 19.4248 26.8786C19.2642 26.9584 19.0863 27 18.9058 27H26.8635C27.0439 26.9999 27.2218 26.9583 27.3824 26.8786C27.5429 26.7988 27.6815 26.6832 27.7868 26.5413C27.892 26.3994 27.9608 26.2353 27.9875 26.0626C28.0142 25.8899 27.998 25.7135 27.9403 25.5481L21.0345 5.74826Z" fill="url(#paint2_linear_42_53)"/>
  <defs>
    <linearGradient id="paint0_linear_42_53" x1="14.5173" y1="6.63052" x2="7.45977" y2="27.9164" gradientUnits="userSpaceOnUse">
      <stop stop-color="#114A8B"/>
      <stop offset="1" stop-color="#0669BC"/>
    </linearGradient>
    <linearGradient id="paint1_linear_42_53" x1="16.8522" y1="16.5088" x2="15.1601" y2="17.0951" gradientUnits="userSpaceOnUse">
      <stop stop-opacity="0.3"/>
      <stop offset="0.071" stop-opacity="0.2"/>
      <stop offset="0.321" stop-opacity="0.1"/>
      <stop offset="0.623" stop-opacity="0.05"/>
      <stop offset="1" stop-opacity="0"/>
    </linearGradient>
    <linearGradient id="paint2_linear_42_53" x1="15.8903" y1="6.01201" x2="23.572" y2="27.1618" gradientUnits="userSpaceOnUse">
      <stop stop-color="#3CCBF4"/>
      <stop offset="1" stop-color="#2892DF"/>
    </linearGradient>
  </defs>
</svg>
